<svg width="267" height="353" viewBox="0 0 267 353" fill="none" xmlns="http://www.w3.org/2000/svg">
<path d="M0 44.5C0 19.9233 19.9233 0 44.5 0H222.5C247.077 0 267 19.9233 267 44.5C267 69.0767 247.077 89 222.5 89H44.5C19.9233 89 0 69.0767 0 44.5Z" fill="#ECB09B"/>
<path d="M44.5 353C19.9233 353 0 333.077 0 308.5V44.5C0 19.9233 19.9233 0 44.5 0H89V308.5C89 333.077 69.0767 353 44.5 353Z" fill="#F9E8AD"/>
<path d="M0 133.5C0 108.923 19.9233 89 44.5 89H133.5C158.077 89 178 108.923 178 133.5C178 158.077 158.077 178 133.5 178H44.5C19.9233 178 0 158.077 0 133.5Z" fill="#D0EAF9"/>
<path d="M44.5 353C19.9233 353 0 333.077 0 308.5V133.5C0 108.923 19.9233 89 44.5 89H89V308.5C89 333.077 69.0767 353 44.5 353Z" fill="#FFFEFA"/>
<path d="M44.5 353C19.9233 353 0 333.077 0 308.5V222.5C0 197.923 19.9233 178 44.5 178H89V308.5C89 333.077 69.0767 353 44.5 353Z" fill="#C4C4C4"/>
<path d="M44.5 353C19.9233 353 0 333.077 0 308.5C0 283.923 19.9233 264 44.5 264H89V308.5C89 333.077 69.0767 353 44.5 353Z" fill="black"/>
</svg>
